<svg xmlns="http://www.w3.org/2000/svg" xmlns:xlink="http://www.w3.org/1999/xlink" preserveAspectRatio="xMidYMid" width="117" height="22" viewBox="0 0 117 22">
  <defs>
    <style>
      .cls-1 {
        fill: #151515;
        fill-rule: evenodd;
      }
    </style>
  </defs>
  <path d="M117.000,22.000 L111.000,22.000 L106.000,15.125 L101.000,22.000 L95.000,22.000 L103.000,11.000 L95.000,-0.000 L101.000,-0.000 L106.000,6.875 L111.000,-0.000 L117.000,-0.000 L109.000,11.000 L117.000,22.000 ZM76.000,-0.000 L91.000,-0.000 L91.000,4.000 L81.000,4.000 L81.000,9.000 L90.000,9.000 L90.000,13.000 L81.000,13.000 L81.000,18.000 L91.000,18.000 L91.000,22.000 L76.000,22.000 L76.000,-0.000 ZM50.000,-0.000 L64.000,11.000 L64.000,-0.000 L69.000,-0.000 L69.000,22.000 L50.000,6.000 L50.000,-0.000 ZM33.000,22.000 C26.925,22.000 22.000,17.075 22.000,11.000 C22.000,10.334 22.069,9.685 22.183,9.051 L27.909,14.141 C28.966,15.851 30.842,17.000 33.000,17.000 C36.314,17.000 39.000,14.314 39.000,11.000 C39.000,7.686 36.314,5.000 33.000,5.000 C30.756,5.000 28.824,6.246 27.794,8.070 L23.972,4.725 C25.959,1.871 29.259,-0.000 33.000,-0.000 C39.075,-0.000 44.000,4.925 44.000,11.000 C44.000,17.075 39.075,22.000 33.000,22.000 ZM17.000,18.000 L17.000,22.000 L-0.000,22.000 L10.000,6.000 L1.000,6.000 L1.000,1.000 L18.000,1.000 L8.000,18.000 L17.000,18.000 ZM55.000,22.000 L50.000,22.000 L50.000,12.000 L55.000,15.000 L55.000,22.000 Z" class="cls-1"/>
</svg>
